<?xml version="1.0" encoding="UTF-8" standalone="no"?>
<!-- Created with Inkscape (http://www.inkscape.org/) -->

<svg
   width="13mm"
   height="4.5mm"
   viewBox="0 0 13 4.5"
   version="1.1"
   id="svg5"
   inkscape:version="1.2.1 (9c6d41e4, 2022-07-14)"
   sodipodi:docname="klogs.svg"
   xmlns:inkscape="http://www.inkscape.org/namespaces/inkscape"
   xmlns:sodipodi="http://sodipodi.sourceforge.net/DTD/sodipodi-0.dtd"
   xmlns="http://www.w3.org/2000/svg"
   xmlns:svg="http://www.w3.org/2000/svg">
  <sodipodi:namedview
     id="namedview7"
     pagecolor="#ffffff"
     bordercolor="#000000"
     borderopacity="0.25"
     inkscape:showpageshadow="2"
     inkscape:pageopacity="0.0"
     inkscape:pagecheckerboard="0"
     inkscape:deskcolor="#d1d1d1"
     inkscape:document-units="mm"
     showgrid="false"
     inkscape:zoom="20.70196"
     inkscape:cx="19.684127"
     inkscape:cy="-1.2800721"
     inkscape:window-width="2560"
     inkscape:window-height="1387"
     inkscape:window-x="2560"
     inkscape:window-y="25"
     inkscape:window-maximized="0"
     inkscape:current-layer="layer1" />
  <defs
     id="defs2" />
  <g
     inkscape:label="Layer 1"
     inkscape:groupmode="layer"
     id="layer1"
     transform="translate(-59.859824,-131.19008)">
    <text
       xml:space="preserve"
       style="font-size:3.175px;fill:#d31245;stroke-width:0.264999"
       x="44.128067"
       y="79.596413"
       id="text236"><tspan
         sodipodi:role="line"
         id="tspan234"
         style="stroke-width:0.265"
         x="44.128067"
         y="79.596413" /></text>
    <g
       aria-label="Klogs"
       id="text240"
       style="font-size:3.175px;fill:#d31245;stroke-width:0.264999">
      <path
         d="m 62.091818,133.24815 q 0,0.0115 -0.01152,0.0374 -0.01152,0.0259 -0.01152,0.0403 -0.144056,0.47827 -0.426406,0.74045 -0.282351,0.26218 -0.636729,0.26218 -0.319805,0 -0.518603,-0.19303 -0.167105,-0.16423 -0.167105,-0.35726 0,-0.17287 0.0922,-0.28812 0.103721,-0.12677 0.273707,-0.12677 0.07203,0 0.141175,0.0461 0.08355,0.0547 0.08355,0.13253 0,0.0519 -0.03169,0.11813 -0.04033,0.0778 -0.0922,0.0922 -0.115245,0.0346 -0.115245,0.18727 0,0.13829 0.164225,0.13829 0.259301,0 0.697232,-0.67418 0.172867,-0.26794 0.475386,-0.74621 -0.328449,0.24778 -0.544533,0.24778 -0.100839,0 -0.201679,-0.0576 -0.141175,-0.0807 -0.141175,-0.23625 0,-0.3054 0.43505,-0.49843 0.08067,-0.0346 0.129651,-0.0346 0.0605,0 0.0605,0.0432 0,0.0691 -0.118126,0.16134 -0.0605,0.0461 -0.0605,0.11525 0,0.0605 0.0461,0.10948 0.0461,0.0461 0.115245,0.0547 0.172868,0.0202 0.388952,-0.16998 0.08643,-0.0836 0.293875,-0.26507 0.05474,-0.0461 0.109483,-0.0461 0.06627,0 0.06627,0.0634 0,0.0461 -0.04322,0.10084 -0.20456,0.26506 -0.403358,0.85281 0.267945,-0.3054 0.512841,-0.54165 0.290993,-0.27947 0.48691,-0.3976 0.207441,-0.12388 0.391833,-0.12388 0.207441,0 0.207441,0.19303 0,0.11236 -0.112364,0.22185 -0.103721,0.098 -0.190154,0.1066 -0.08355,0.009 -0.141175,-0.0202 -0.06627,-0.0346 -0.138295,-0.0346 -0.236252,0 -0.435049,0.21032 -0.135413,0.14406 -0.242015,0.27947 0.03746,-0.0115 0.17863,-0.0461 0.02881,-0.006 0.0605,-0.006 0.08931,0 0.149819,0.0576 0.0605,0.0547 0.0605,0.13541 0,0.0259 -0.0058,0.0519 -0.02881,0.11813 -0.115245,0.3976 -0.0086,0.0288 -0.0086,0.0547 0,0.0807 0.08643,0.0807 0.07491,0 0.123888,-0.0576 0.05186,-0.0605 0.112364,-0.0634 0.05762,-0.003 0.05762,0.0432 0,0.0432 -0.05474,0.098 -0.311161,0.31116 -0.331329,0.32845 -0.221847,0.18727 -0.406239,0.18727 -0.227609,0 -0.227609,-0.22473 0,-0.14981 0.103721,-0.38895 0.10372,-0.24201 0.10372,-0.31692 0,-0.072 -0.05762,-0.0893 -0.02305,-0.009 -0.10084,-0.009 -0.05474,0 -0.118126,0.0231 z"
         style="font-family:Ballpark;-inkscape-font-specification:'Ballpark, Normal';stroke-width:0.265"
         id="path730" />
      <path
         d="m 63.033941,133.79556 q -0.01441,0 -0.03169,-0.023 -0.01441,-0.0259 -0.01441,-0.049 0,-0.0173 0.0058,-0.0288 0.07203,-0.0749 0.247777,-0.27082 0.08067,-0.098 0.267944,-0.37743 0.190155,-0.28235 0.253539,-0.40048 0.256421,-0.48691 0.302519,-0.46674 0.04322,0.0173 0.100839,0.0749 0.05762,0.0576 0.07779,0.11237 0.02881,0.072 0.02881,0.10083 0,0.0432 -0.03457,0.11525 -0.25642,0.51572 -0.544533,1.11211 -0.03169,0.0807 -0.03169,0.11237 0,0.0461 0.05474,0.0346 0.04322,-0.009 0.149819,-0.11524 0.106602,-0.10949 0.144056,-0.10949 0.06338,0 0.06338,0.0519 0,0.0259 -0.01441,0.0432 -0.08643,0.0922 -0.172867,0.18727 -0.172868,0.17863 -0.25642,0.23049 -0.181511,0.11813 -0.314043,0.11813 -0.135413,0 -0.198798,-0.12389 -0.01152,-0.0202 -0.01152,-0.0547 0,-0.19015 0.311161,-0.71452 -0.305399,0.44081 -0.383189,0.44081 z"
         style="font-family:Ballpark;-inkscape-font-specification:'Ballpark, Normal';stroke-width:0.265"
         id="path732" />
      <path
         d="m 65.286976,133.60253 q 0.0461,0.0173 0.0461,0.0461 0,0.0317 -0.0461,0.0836 -0.146938,0.19591 -0.339973,0.21032 -0.06338,0.006 -0.106602,-0.0173 -0.253539,0.33421 -0.5647,0.33421 -0.146938,0 -0.233372,-0.0951 -0.08643,-0.0951 -0.08643,-0.25642 0,-0.0691 0.01729,-0.14406 -0.01152,0.0115 -0.02881,0.0115 -0.05762,0 -0.05762,-0.0576 0,-0.0288 0.02305,-0.0547 0.141175,-0.17863 0.305399,-0.3515 0.253539,-0.2737 0.449456,-0.36302 0.109482,-0.0519 0.213203,-0.0519 0.195916,0 0.262182,0.1988 0.01441,0.0432 0.01441,0.10084 0,0.19303 -0.144056,0.47827 0.03457,0.0202 0.03457,0.0807 0.09796,-0.0231 0.155581,-0.12389 0.04322,-0.0432 0.08643,-0.0288 z m -0.815359,0.3659 q 0.02017,0.009 0.04034,0.009 0.0922,0 0.164224,-0.16422 -0.03745,-0.0663 -0.03745,-0.13541 0,-0.0403 0.01441,-0.0749 0.03746,-0.0951 0.187273,-0.0692 0.112364,-0.21608 0.112364,-0.32269 0,-0.0807 -0.07779,-0.0807 -0.115245,0 -0.311162,0.36014 -0.149818,0.27083 -0.149818,0.37743 0,0.0749 0.05762,0.10084 z"
         style="font-family:Ballpark;-inkscape-font-specification:'Ballpark, Normal';stroke-width:0.265"
         id="path734" />
      <path
         d="m 65.47713,134.35738 q 0.06915,-0.0346 0.236252,-0.098 0.02881,-0.0634 0.02881,-0.072 -0.144056,0.0691 -0.273706,0.0691 -0.172868,0 -0.239134,-0.10084 -0.03169,-0.049 -0.03169,-0.14693 0,-0.18728 0.07779,-0.26507 -0.05186,0.0375 -0.09508,0.0403 -0.04322,-0.0288 -0.04322,-0.0605 0,-0.0173 0.01441,-0.0346 0.06339,-0.0807 0.216084,-0.25642 0.213203,-0.23337 0.265064,-0.27947 0.23049,-0.20744 0.388952,-0.20744 0.325567,0 0.325567,0.10084 0.118126,-0.29676 0.201678,-0.29676 0.05186,0 0.118127,0.10084 0.02881,0.0403 0.05762,0.0836 0.03457,0.0576 0.02593,0.0951 -0.135413,0.28524 -0.46098,0.97959 0.09796,-0.0634 0.149819,-0.11525 0.198797,-0.1988 0.216084,-0.2132 0.07779,-0.0749 0.115245,-0.0749 0.05186,0 0.05186,0.0576 0,0.049 -0.06338,0.12101 -0.216085,0.23913 -0.564701,0.42641 -0.363022,0.78366 -0.694351,0.86433 -0.121007,0.0288 -0.227609,0.0288 -0.172867,0 -0.267945,-0.0807 -0.09508,-0.0778 -0.08067,-0.22761 0.01441,-0.14981 0.198798,-0.26218 0.175748,-0.0864 0.354378,-0.17575 z m 0.412001,-0.9162 q -0.17863,0.28812 -0.17863,0.35438 0,0.0259 0.04034,0.0432 0.02593,0.009 0.04898,0.009 0.121007,0 0.267945,-0.26506 0.144056,-0.25642 0.144056,-0.33709 0,-0.0317 -0.02881,-0.0432 -0.01441,-0.009 -0.03457,-0.009 -0.106602,0 -0.259301,0.24777 z m -0.429288,1.34261 q 0.08355,-0.14118 0.169987,-0.32845 -0.259302,0.1066 -0.339973,0.26218 -0.04034,0.0807 -0.04034,0.13542 0,0.072 0.05186,0.072 0.07779,0 0.158462,-0.14117 z"
         style="font-family:Ballpark;-inkscape-font-specification:'Ballpark, Normal';stroke-width:0.265"
         id="path736" />
      <path
         d="m 67.663899,133.72354 q 0.05762,-0.0259 0.109483,-0.0836 0.03457,-0.0403 0.08067,-0.0403 0.0605,0 0.0605,0.0576 0,0.0259 -0.05186,0.0864 -0.08931,0.1066 -0.23049,0.12965 -0.07779,0.21609 -0.247777,0.31405 -0.115245,0.0663 -0.236252,0.0663 -0.273707,0 -0.351497,-0.14117 -0.04898,-0.0864 -0.04898,-0.17287 0,-0.14406 0.112364,-0.1988 0.0922,-0.0432 0.187273,-0.0432 0.05474,0 0.20456,0.0202 0.01441,-0.072 0.0086,-0.25354 -0.0029,-0.16134 0.02305,-0.24777 -0.08355,0.049 -0.262182,0.25354 -0.23049,0.26506 -0.244896,0.27947 -0.05186,0.0519 -0.103721,0.0173 -0.04898,-0.0346 0,-0.0893 0.135413,-0.15846 0.452337,-0.51572 0.129651,-0.1383 0.28235,-0.22473 0.1527,-0.0864 0.262183,-0.0864 0.193035,0 0.193035,0.16423 0,0.0605 -0.04898,0.1066 -0.04898,0.0461 -0.103721,0.0461 -0.0144,0 -0.02881,-0.003 -0.08643,-0.0231 -0.118126,0.009 -0.03169,0.0317 -0.03169,0.072 0,0.0403 0.03457,0.15846 0.0058,0.0144 0.06339,0.15846 0.03457,0.0864 0.03457,0.16135 z m -0.455217,0.13253 q -0.193036,-0.023 -0.218966,-0.006 -0.0461,0.0288 -0.0461,0.0692 0,0.0519 0.05474,0.0807 0.02017,0.009 0.04033,0.009 0.09508,0 0.169987,-0.1527 z"
         style="font-family:Ballpark;-inkscape-font-specification:'Ballpark, Normal';stroke-width:0.265"
         id="path738" />
    </g>
    <path
       style="fill:#6bb8fe;stroke-width:0.032008"
       d="m 68.510337,132.68403 c -0.0358,0.0832 -0.07032,0.89018 0.387593,1.43763 0.341782,0.40837 0.804078,0.5755 1.412939,0.59933 0.608849,0.0237 1.196691,-0.18868 1.479146,-0.52523 0.510005,-0.60816 0.45664,-1.34037 0.429964,-1.4494 -0.06752,-0.27615 -0.598491,-0.47137 -1.837872,-0.47137 -1.152446,6.7e-4 -1.780136,0.19586 -1.87177,0.40904 z"
       id="path347" />
    <path
       style="fill:#1d89fe;stroke-width:0.0315026"
       d="m 71.294138,132.67769 c 0.01287,-0.004 0.252327,0.0234 0.257041,0.0202 0.0051,-0.004 0.105736,-0.23968 0.105736,-0.23968 0,0 -0.09007,-0.0189 -0.13338,-0.0271 -0.04331,-0.008 -0.229422,0.24665 -0.229422,0.24665 z"
       id="path349" />
    <path
       style="fill:#e0ebf6;stroke-width:0.0315026"
       d="m 69.40103,134.28785 c -0.0493,0.0597 -0.342101,-0.11104 -0.537,-0.51005 -0.170732,-0.34942 -0.166337,-0.53915 -0.134322,-0.56919 0.04204,-0.0395 0.165088,-0.004 0.193013,0.0873 0.03771,0.12137 0.03643,0.26215 0.167916,0.52144 0.199918,0.39431 0.352445,0.41961 0.310393,0.47051 z"
       id="path351" />
    <path
       style="fill:#1d89fe;stroke-width:0.0315026"
       d="m 68.738179,132.80672 c 0.01758,0.19161 0.652494,0.30735 1.656795,0.32443 1.004302,0.017 1.639839,-0.12404 1.639839,-0.30325 0,-0.1793 -0.665347,-0.30737 -1.597468,-0.3159 -0.93212,-0.008 -1.716109,0.11139 -1.699166,0.29472 z"
       id="path353" />
    <path
       style="fill:#025abc;stroke-width:0.0315026"
       d="m 71.375109,133.0875 0.217498,-0.48 -0.277754,-0.0417 -0.35214,0.0548 -0.232556,0.50846 c 0,0 0.232556,-0.004 0.370968,-0.0141 0.1384,-0.0106 0.273984,-0.0274 0.273984,-0.0274 z"
       id="path355" />
    <path
       style="fill:#9d9c9c;stroke-width:0.0315026"
       d="m 70.946713,133.12418 c 0,0 0.482067,-0.52111 0.755426,-0.80633 0.27336,-0.28523 0.514706,-0.50151 0.519419,-0.58563 0.0064,-0.10822 -0.198987,-0.15525 -0.198987,-0.15525 l -1.292414,1.44794 -0.03414,0.1034 c 0,0 0.09287,0.004 0.139037,0 0.04675,-0.004 0.111723,-0.005 0.111723,-0.005 z"
       id="path357" />
    <path
       style="fill:#e0e0e0;stroke-width:0.0315026"
       d="m 72.018176,131.57507 c 0,0 0.150337,0.0332 0.14375,0.0908 -0.0089,0.0746 -0.06841,0.13752 -0.141865,0.21376 -0.07338,0.0763 -1.185072,1.2484 -1.185072,1.2484 l -0.105736,0.004 -0.01274,-0.0544 z"
       id="path359" />
    <path
       style="fill:#c8c8c8;stroke-width:0.0315026"
       d="m 70.492889,133.13209 c 0,0 0.399529,-0.50151 0.748841,-0.91986 0.349311,-0.41834 0.518781,-0.64634 0.567738,-0.6612 0.04892,-0.0156 0.292825,0.0314 0.301615,0.0625 0.01273,0.0436 -0.0038,0.0877 -0.130871,0.22041 -0.127137,0.13281 -1.226194,1.29646 -1.226194,1.29646 0,0 -0.05682,0.001 -0.11236,0.001 -0.05555,3e-4 -0.148769,-6.5e-4 -0.148769,-6.5e-4 z"
       id="path361" />
    <path
       style="fill:#ffffff;stroke-width:0.0315026"
       d="m 71.823277,131.63073 c -0.07223,0.0262 -0.311959,0.2871 -0.248874,0.31429 0.05083,0.0221 0.206517,-0.14928 0.289373,-0.19667 0.08281,-0.0473 0.132437,-0.0249 0.141227,-0.0632 0.0089,-0.0385 -0.107646,-0.0815 -0.181726,-0.0544 z"
       id="path363" />
    <g
       aria-label="{JSON}"
       id="text693"
       style="font-size:0.705556px;-inkscape-font-specification:'sans-serif, Normal';fill:#280b0b;stroke-width:0.264999">
      <path
         d="m 69.411424,133.92229 h -0.05168 q -0.06167,0 -0.100253,-0.0344 -0.03824,-0.0341 -0.03824,-0.0989 v -0.0513 q 0,-0.0582 -0.02859,-0.0909 -0.02859,-0.0331 -0.08751,-0.0331 h -0.01757 v -0.0537 h 0.01757 q 0.05891,0 0.08751,-0.0327 0.02859,-0.0331 0.02859,-0.0913 v -0.0513 q 0,-0.0648 0.03824,-0.0989 0.03858,-0.0344 0.100253,-0.0344 h 0.05168 v 0.0475 h -0.03927 q -0.04685,0 -0.06821,0.0217 -0.02102,0.0217 -0.02102,0.0699 v 0.0603 q 0,0.0479 -0.02653,0.0806 -0.02653,0.0324 -0.07373,0.0513 v 0.008 q 0.0472,0.0189 0.07373,0.0517 0.02653,0.0324 0.02653,0.0803 v 0.0603 q 0,0.0482 0.02102,0.0699 0.02136,0.0217 0.06821,0.0217 h 0.03927 z"
         style="stroke-width:0.265"
         id="path914" />
      <path
         d="m 69.732852,133.65392 q 0,0.0675 -0.04134,0.10404 -0.041,0.0365 -0.110243,0.0365 -0.01654,0 -0.0441,-0.003 -0.02756,-0.003 -0.04616,-0.007 v -0.0637 h 0.0038 q 0.01413,0.005 0.0348,0.01 0.02067,0.005 0.04238,0.005 0.03169,0 0.0503,-0.007 0.01895,-0.007 0.02791,-0.0207 0.0093,-0.0138 0.01171,-0.0338 0.0028,-0.02 0.0028,-0.0462 v -0.29938 h -0.108521 v -0.0544 h 0.176734 z"
         style="stroke-width:0.265"
         id="path916" />
      <path
         d="m 70.238247,133.64083 q 0,0.03 -0.01412,0.0593 -0.01378,0.0293 -0.03893,0.0496 -0.02756,0.022 -0.06442,0.0345 -0.03652,0.0124 -0.08819,0.0124 -0.05547,0 -0.09991,-0.0103 -0.0441,-0.0103 -0.08992,-0.0307 v -0.0854 h 0.0048 q 0.03893,0.0324 0.08992,0.05 0.05099,0.0176 0.09577,0.0176 0.06339,0 0.09853,-0.0238 0.03548,-0.0238 0.03548,-0.0634 0,-0.0341 -0.01688,-0.0503 -0.01654,-0.0162 -0.05064,-0.0251 -0.02584,-0.007 -0.05616,-0.0114 -0.02997,-0.004 -0.06373,-0.0114 -0.06821,-0.0145 -0.101286,-0.0493 -0.03273,-0.0351 -0.03273,-0.0913 0,-0.0644 0.05443,-0.10542 0.05443,-0.0413 0.138149,-0.0413 0.05409,0 0.09922,0.0103 0.04513,0.0103 0.07993,0.0255 v 0.0806 h -0.0048 q -0.02928,-0.0248 -0.07717,-0.041 -0.04754,-0.0165 -0.0975,-0.0165 -0.05478,0 -0.08819,0.0227 -0.03307,0.0227 -0.03307,0.0586 0,0.032 0.01654,0.0503 0.01654,0.0183 0.05822,0.0279 0.02205,0.005 0.0627,0.0117 0.04065,0.007 0.0689,0.0141 0.05719,0.0152 0.08613,0.0458 0.02894,0.0307 0.02894,0.0858 z"
         style="stroke-width:0.265"
         id="path918" />
      <path
         d="m 70.730207,133.33318 q 0.03135,0.0344 0.04789,0.0844 0.01688,0.05 0.01688,0.11334 0,0.0634 -0.01722,0.11369 -0.01688,0.0499 -0.04754,0.0834 -0.03169,0.0348 -0.0751,0.0524 -0.04306,0.0176 -0.09853,0.0176 -0.05409,0 -0.09853,-0.0179 -0.0441,-0.0179 -0.0751,-0.052 -0.03101,-0.0341 -0.04789,-0.0837 -0.01654,-0.0496 -0.01654,-0.11335 0,-0.0627 0.01654,-0.11231 0.01654,-0.0499 0.04823,-0.0854 0.03032,-0.0338 0.0751,-0.0517 0.04513,-0.0179 0.09819,-0.0179 0.05512,0 0.09888,0.0183 0.0441,0.0179 0.07476,0.0513 z m -0.0062,0.19775 q 0,-0.0999 -0.04479,-0.15399 -0.04479,-0.0544 -0.122301,-0.0544 -0.0782,0 -0.12299,0.0544 -0.04444,0.0541 -0.04444,0.15399 0,0.10094 0.04547,0.15469 0.04548,0.0534 0.121957,0.0534 0.07648,0 0.121612,-0.0534 0.04547,-0.0538 0.04547,-0.15469 z"
         style="stroke-width:0.265"
         id="path920" />
      <path
         d="m 71.294514,133.78725 h -0.08441 l -0.243223,-0.45889 v 0.45889 h -0.06374 v -0.51298 h 0.105765 l 0.221864,0.41893 v -0.41893 h 0.06373 z"
         style="stroke-width:0.265"
         id="path922" />
      <path
         d="m 71.750301,133.61361 h -0.01757 q -0.05891,0 -0.08751,0.0331 -0.02859,0.0327 -0.02859,0.0909 v 0.0513 q 0,0.0648 -0.03858,0.0989 -0.03824,0.0344 -0.09991,0.0344 h -0.05168 v -0.0475 h 0.03928 q 0.04685,0 0.06787,-0.0217 0.02136,-0.0217 0.02136,-0.0699 v -0.0603 q 0,-0.0479 0.02653,-0.0803 0.02653,-0.0327 0.07372,-0.0517 v -0.008 q -0.0472,-0.0189 -0.07372,-0.0513 -0.02653,-0.0327 -0.02653,-0.0806 v -0.0603 q 0,-0.0482 -0.02136,-0.0699 -0.02101,-0.0217 -0.06787,-0.0217 h -0.03928 v -0.0475 h 0.05168 q 0.06167,0 0.09991,0.0344 0.03858,0.0341 0.03858,0.0989 v 0.0513 q 0,0.0582 0.02859,0.0913 0.02859,0.0327 0.08751,0.0327 h 0.01757 z"
         style="stroke-width:0.265"
         id="path924" />
    </g>
  </g>
</svg>
