<svg width="1500mm" height="300mm" viewBox="0 0 1500 300" xmlns="http://www.w3.org/2000/svg">
    <g aria-label="Klogs" style="fill:#d31245;stroke-width:.264999">
        <path d="M62.092 133.248q0 .012-.012.038-.011.025-.011.04-.144.478-.427.74-.282.262-.636.262-.32 0-.519-.193-.167-.164-.167-.357 0-.173.092-.288.104-.127.274-.127.072 0 .141.046.084.055.084.133 0 .052-.032.118-.04.078-.092.092-.116.035-.116.188 0 .138.165.138.259 0 .697-.674.173-.268.475-.747-.328.248-.544.248-.101 0-.202-.057-.141-.081-.141-.237 0-.305.435-.498.08-.035.13-.035.06 0 .06.044 0 .069-.118.16-.06.047-.06.116 0 .06.046.11.046.046.115.054.173.02.389-.17.086-.083.294-.265.054-.046.11-.046.065 0 .065.064 0 .046-.043.1-.204.265-.403.853.268-.305.513-.541.29-.28.487-.398.207-.124.391-.124.208 0 .208.193 0 .112-.113.222-.103.098-.19.107-.083.009-.14-.02-.067-.035-.14-.035-.235 0-.434.21-.136.144-.242.28.037-.012.178-.047.03-.006.06-.006.09 0 .15.058.061.055.061.135 0 .026-.006.052-.028.118-.115.398-.008.029-.008.055 0 .08.086.08.075 0 .124-.057.052-.06.112-.064.058-.003.058.044 0 .043-.055.098-.311.31-.331.328-.222.187-.406.187-.228 0-.228-.224 0-.15.104-.39.103-.241.103-.316 0-.072-.057-.09-.023-.009-.101-.009-.055 0-.118.023z"
              style="stroke-width:.265" transform="matrix(64.29838 0 0 64.29838 -3539.108 -8434.078)"/>
        <path d="M63.034 133.796q-.014 0-.032-.023-.014-.026-.014-.05 0-.017.006-.028.072-.075.247-.271.081-.098.268-.377.19-.283.254-.401.256-.487.302-.467.044.018.101.075.058.058.078.113.029.072.029.1 0 .044-.035.116-.256.515-.544 1.112-.032.08-.032.112 0 .046.055.035.043-.01.15-.116.106-.109.144-.109.063 0 .063.052 0 .026-.014.043-.087.092-.173.187-.173.179-.257.23-.181.119-.314.119-.135 0-.198-.124-.012-.02-.012-.055 0-.19.311-.714-.305.44-.383.44z"
              style="stroke-width:.265" transform="matrix(64.29838 0 0 64.29838 -3539.108 -8434.078)"/>
        <path d="M65.287 133.603q.046.017.046.046 0 .031-.046.083-.147.196-.34.21-.063.007-.107-.017-.253.334-.564.334-.147 0-.234-.095-.086-.095-.086-.256 0-.07.017-.144-.011.011-.029.011-.057 0-.057-.057 0-.029.023-.055.141-.179.305-.351.254-.274.45-.363.11-.052.213-.052.196 0 .262.198.014.044.014.101 0 .193-.144.479.035.02.035.08.098-.023.156-.124.043-.043.086-.028zm-.815.365q.02.01.04.01.092 0 .164-.165-.037-.066-.037-.135 0-.04.014-.075.038-.095.187-.07.113-.215.113-.322 0-.08-.078-.08-.115 0-.311.36-.15.27-.15.377 0 .075.058.1z"
              style="stroke-width:.265" transform="matrix(64.29838 0 0 64.29838 -3539.108 -8434.078)"/>
        <path d="M65.477 134.357q.07-.034.236-.098.03-.063.03-.072-.145.07-.275.07-.172 0-.239-.101-.031-.05-.031-.147 0-.188.077-.265-.051.037-.095.04-.043-.029-.043-.06 0-.018.015-.035.063-.08.216-.257.213-.233.265-.28.23-.206.389-.206.325 0 .325.1.118-.296.202-.296.052 0 .118.1.029.04.058.084.034.058.026.095-.136.285-.461.98.098-.064.15-.116.198-.198.216-.213.077-.075.115-.075.052 0 .052.058 0 .049-.064.121-.216.24-.564.426-.363.784-.695.865-.12.029-.227.029-.173 0-.268-.081-.095-.078-.081-.228.014-.15.199-.262.176-.086.354-.176zm.412-.916q-.178.288-.178.355 0 .025.04.043.026.009.049.009.12 0 .268-.265.144-.257.144-.337 0-.032-.029-.044-.014-.009-.035-.009-.106 0-.259.248zm-.43 1.343q.084-.141.17-.329-.258.107-.34.263-.04.08-.04.135 0 .072.052.072.078 0 .159-.141z"
              style="stroke-width:.265" transform="matrix(64.29838 0 0 64.29838 -3539.108 -8434.078)"/>
        <path d="M67.664 133.724q.058-.026.11-.084.034-.04.08-.04.06 0 .06.057 0 .026-.051.087-.09.106-.23.13-.079.215-.249.313-.115.067-.236.067-.274 0-.351-.142-.05-.086-.05-.172 0-.144.113-.2.092-.042.187-.042.055 0 .205.02.014-.072.008-.254-.002-.161.024-.248-.084.05-.263.254-.23.265-.245.28-.051.051-.103.017-.05-.035 0-.09.135-.158.452-.515.13-.139.282-.225.153-.086.263-.086.193 0 .193.164 0 .06-.05.106-.048.047-.103.047-.014 0-.029-.003-.086-.024-.118.009-.032.031-.032.072 0 .04.035.158l.063.159q.035.086.035.16zm-.455.132q-.193-.023-.22-.006-.045.029-.045.07 0 .051.054.08.02.009.04.009.096 0 .17-.153z"
              style="stroke-width:.265" transform="matrix(64.29838 0 0 64.29838 -3539.108 -8434.078)"/>
    </g>
    <path style="fill:#6bb8fe;stroke-width:2.05806"
          d="M865.974 97.352c-2.25 5.337-4.5 57.226 24.948 92.461 21.99 26.234 51.696 36.972 90.854 38.515 39.157 1.543 76.965-12.217 95.097-33.757 32.792-39.093 29.384-86.16 27.648-93.232-4.372-17.747-38.579-30.285-118.18-30.285-74.072 0-114.451 12.603-120.367 26.298z"/>
    <path style="fill:#1d89fe;stroke-width:2.02557"
          d="M1044.98 96.966c.837-.257 16.204 1.48 16.526 1.286.321-.257 6.815-15.431 6.815-15.431l-8.551-1.736c-2.83-.515-14.79 15.881-14.79 15.881z"/>
    <path style="fill:#e0ebf6;stroke-width:2.02557"
          d="M923.2 200.487c-3.215 3.858-21.926-7.137-34.464-32.792-10.93-22.505-10.674-34.722-8.616-36.65 2.7-2.572 10.61-.193 12.41 5.658 2.378 7.716 2.314 16.846 10.802 33.435 12.86 25.462 22.633 27.005 19.932 30.22z"/>
    <path style="fill:#1d89fe;stroke-width:2.02557"
          d="M880.634 105.26c1.158 12.218 41.987 19.74 106.543 20.834 64.555 1.093 105.449-7.973 105.449-19.483 0-11.574-42.823-19.74-102.749-20.318-59.926-.515-110.336 7.073-109.307 18.968z"/>
    <path style="fill:#025abc;stroke-width:2.02557"
          d="m1050.19 123.329 14.016-30.863-17.875-2.701-22.633 3.536-14.981 32.664s14.981-.257 23.79-.9a378.074 378.074 0 0 0 17.682-1.736z"/>
    <path style="fill:#9d9c9c;stroke-width:2.02557"
          d="M1022.67 125.643s30.991-33.435 48.545-51.824c17.553-18.325 33.113-32.278 33.435-37.679.386-6.944-12.86-9.966-12.86-9.966l-83.073 93.104-2.187 6.623s5.98.257 9.002 0c2.958-.258 7.073-.322 7.073-.322z"/>
    <path style="fill:#e0e0e0;stroke-width:2.02557"
          d="M1091.533 26.045s9.645 2.122 9.259 5.787c-.643 4.823-4.372 8.873-9.13 13.824l-76.194 80.245-6.816.257-.771-3.472z"/>
    <path style="fill:#c8c8c8;stroke-width:2.02557"
          d="M993.478 126.158s25.72-32.214 48.16-59.155c22.44-26.876 33.37-41.536 36.457-42.5 3.215-1.03 18.839 1.928 19.418 4.05.836 2.765-.257 5.594-8.36 14.146-8.23 8.551-78.893 83.33-78.893 83.33h-16.846z"/>
    <path style="fill:#fff;stroke-width:2.02557"
          d="M1078.995 29.517c-4.63 1.8-20.061 18.583-16.075 20.319 3.344 1.414 13.374-9.645 18.647-12.667 5.4-3.022 8.551-1.608 9.13-4.05.579-2.444-6.944-5.21-11.702-3.473z"/>
    <g style="fill:#280b0b;stroke-width:.264999">
        <path d="M69.411 133.922h-.051q-.062 0-.1-.034-.039-.034-.039-.099v-.051q0-.059-.028-.091-.029-.033-.088-.033h-.017v-.054h.017q.06 0 .088-.033.028-.033.028-.091v-.051q0-.065.038-.1.04-.034.1-.034h.052v.048h-.039q-.047 0-.068.022-.021.021-.021.07v.06q0 .048-.027.08-.026.033-.073.052v.008q.047.019.073.051.027.033.027.08v.061q0 .048.02.07.022.022.07.022h.038zm.322-.268q0 .067-.041.104-.041.036-.11.036-.017 0-.045-.003-.027-.003-.046-.007v-.063h.004l.035.01q.02.005.042.005.032 0 .05-.007.02-.007.028-.02.01-.015.012-.035.003-.02.003-.046v-.3h-.109v-.054h.177zm.505-.014q0 .03-.014.06t-.039.05q-.027.022-.064.034-.037.013-.088.013-.056 0-.1-.01-.044-.011-.09-.031v-.086h.005q.038.033.09.05.05.018.095.018.064 0 .099-.024t.035-.063q0-.034-.017-.05-.016-.017-.05-.026-.026-.007-.056-.011-.03-.004-.064-.012-.068-.014-.101-.049t-.033-.091q0-.065.054-.106.055-.04.138-.04.055 0 .1.01.045.01.08.025v.08h-.005q-.03-.024-.077-.04-.048-.017-.098-.017-.055 0-.088.023-.033.022-.033.058 0 .032.016.05.017.019.059.029.022.005.062.011l.07.014q.056.016.085.046.03.03.03.086zm.492-.307q.032.035.048.085.017.05.017.113t-.017.114q-.017.05-.048.083-.031.035-.075.052-.043.018-.098.018-.055 0-.099-.018-.044-.018-.075-.052t-.048-.084q-.016-.05-.016-.113t.016-.112q.017-.05.048-.086.03-.033.075-.051.046-.018.099-.018.055 0 .098.018.045.018.075.051zm-.006.198q0-.1-.045-.154-.045-.054-.122-.054-.078 0-.123.054t-.045.154q0 .1.046.155.045.053.122.053.076 0 .122-.053.045-.054.045-.155zm.571.256h-.085l-.243-.459v.46h-.064v-.514h.106l.222.42v-.42h.064zm.455-.173h-.017q-.06 0-.088.033-.028.032-.028.09v.052q0 .065-.039.099-.038.034-.1.034h-.052v-.047h.04q.047 0 .068-.022.021-.022.021-.07v-.06q0-.048.027-.08.026-.033.073-.052v-.008q-.047-.02-.073-.051-.027-.033-.027-.081v-.06q0-.049-.021-.07-.021-.022-.068-.022h-.04v-.047h.052q.062 0 .1.034.039.034.039.099v.051q0 .058.028.091.029.033.088.033h.017z"
              style="stroke-width:.265" transform="matrix(64.29838 0 0 64.29838 -3539.108 -8434.078)"
              aria-label="{JSON}"/>
    </g>
</svg>